<?xml version="1.0" encoding="UTF-8" standalone="no"?>
<svg
   xmlns:dc="http://purl.org/dc/elements/1.1/"
   xmlns:cc="http://creativecommons.org/ns#"
   xmlns:rdf="http://www.w3.org/1999/02/22-rdf-syntax-ns#"
   xmlns:svg="http://www.w3.org/2000/svg"
   xmlns="http://www.w3.org/2000/svg"
   xmlns:sodipodi="http://sodipodi.sourceforge.net/DTD/sodipodi-0.dtd"
   xmlns:inkscape="http://www.inkscape.org/namespaces/inkscape"
   id="Layer_1"
   viewBox="0 0 66.699997 28.600001"
   version="1.1"
   sodipodi:docname="logo-only-white.svg"
   width="66.699997"
   height="28.6"
   inkscape:version="0.92.1 r15371">
  <metadata
     id="metadata3693">
    <rdf:RDF>
      <cc:Work
         rdf:about="">
        <dc:format>image/svg+xml</dc:format>
        <dc:type
           rdf:resource="http://purl.org/dc/dcmitype/StillImage" />
        <dc:title>logo</dc:title>
      </cc:Work>
    </rdf:RDF>
  </metadata>
  <defs
     id="defs3691" />
  <sodipodi:namedview
     pagecolor="#ffffff"
     bordercolor="#666666"
     borderopacity="1"
     objecttolerance="10"
     gridtolerance="10"
     guidetolerance="10"
     inkscape:pageopacity="0"
     inkscape:pageshadow="2"
     inkscape:window-width="2560"
     inkscape:window-height="1377"
     id="namedview3689"
     showgrid="false"
     fit-margin-top="0"
     fit-margin-left="0"
     fit-margin-right="0"
     fit-margin-bottom="0"
     inkscape:zoom="11.134259"
     inkscape:cx="108"
     inkscape:cy="14.5"
     inkscape:window-x="1912"
     inkscape:window-y="-8"
     inkscape:window-maximized="1"
     inkscape:current-layer="Layer_1" />
  <style
     id="style3680">.st0{fill:#ea881f}.st1{fill:#fff}</style>
  <title
     id="title3682">logo</title>
  <circle
     class="st0"
     cx="4.8000002"
     cy="23.799999"
     r="4.8000002"
     id="circle3684"
     style="fill:#ea881f" />
  <path
     class="st0"
     d="m 62,0 c -2.6,0 -4.8,2.1 -4.8,4.8 0,3.8 -0.6,4.8 -4.8,4.8 H 52 c -2.4,0.2 -4.3,2.2 -4.3,4.7 v 0.1 c 0,3.7 -0.7,4.6 -4.8,4.6 -0.2,0 -0.4,0 -0.5,0.1 -2.4,0.3 -4.3,2.3 -4.3,4.7 0,2.6 2.1,4.8 4.8,4.8 2.5,0 4.6,-2 4.7,-4.4 v -0.4 c 0,-3.4 1.1,-4.7 4.7,-4.8 h 0.1 c 2.5,0 4.6,-2 4.7,-4.5 v -0.3 c 0,-3.5 1.1,-4.8 4.8,-4.8 2.6,0 4.8,-2.1 4.8,-4.8 C 66.7,2.1 64.6,0 62,0 Z M 33.8,9.6 H 33.4 C 29.2,9.6 28.6,8.6 28.6,4.8 28.6,2.2 26.5,0 23.8,0 21.2,0 19,2.1 19,4.8 19,8.6 18.4,9.5 14.2,9.5 h -0.4 c -2.4,0.2 -4.3,2.2 -4.3,4.7 0,2.6 2.1,4.8 4.8,4.8 2.5,0 4.6,-2 4.7,-4.4 v -0.3 c 0,-3.5 1.1,-4.8 4.8,-4.8 3.7,0 4.8,1.3 4.8,4.7 0,2.6 2.1,4.8 4.8,4.8 2.7,0 4.8,-2.1 4.8,-4.8 -0.1,-2.4 -2,-4.4 -4.4,-4.6 z"
     id="path3686"
     inkscape:connector-curvature="0"
     style="fill:#ea881f" />
</svg>
