<svg id="svg" version="1.1" width="400" height="212.45421245421247" viewBox="0 0 400 212.45421245421247" xmlns="http://www.w3.org/2000/svg" xmlns:xlink="http://www.w3.org/1999/xlink" ><g id="svgg"><path id="path0" d="" stroke="none" fill="#000000" fill-rule="evenodd"></path><path id="path1" d="" stroke="none" fill="#555500" fill-rule="evenodd"></path><path id="path2" d="" stroke="none" fill="#ff0000" fill-rule="evenodd"></path><path id="path3" d="" stroke="none" fill="#ff9900" fill-rule="evenodd"></path><path id="path4" d="M124.548 1.094 C 122.152 1.188,120.000 1.355,119.766 1.466 C 119.532 1.577,118.146 1.778,116.684 1.914 C 115.223 2.050,113.932 2.240,113.815 2.335 C 113.698 2.431,112.957 2.577,112.168 2.661 C 111.379 2.744,110.733 2.879,110.733 2.960 C 110.733 3.041,109.873 3.229,108.822 3.377 C 107.771 3.526,106.865 3.723,106.808 3.815 C 106.751 3.907,106.296 4.045,105.796 4.122 C 104.757 4.281,102.218 5.006,101.275 5.413 C 100.925 5.564,100.283 5.751,99.850 5.828 C 99.416 5.904,98.794 6.106,98.468 6.277 C 98.142 6.447,97.707 6.587,97.503 6.587 C 97.298 6.588,97.131 6.674,97.131 6.778 C 97.131 6.882,96.772 7.034,96.334 7.116 C 95.895 7.198,95.154 7.437,94.687 7.647 C 94.219 7.857,93.526 8.095,93.146 8.176 C 92.766 8.257,92.455 8.407,92.455 8.509 C 92.455 8.611,92.120 8.758,91.711 8.834 C 91.302 8.911,90.967 9.047,90.967 9.135 C 90.967 9.224,90.537 9.417,90.011 9.564 C 89.485 9.712,89.054 9.905,89.054 9.994 C 89.054 10.083,88.794 10.221,88.477 10.301 C 87.755 10.482,86.008 11.267,85.866 11.474 C 85.808 11.559,85.377 11.751,84.910 11.902 C 84.442 12.053,84.012 12.245,83.953 12.330 C 83.895 12.414,83.290 12.759,82.610 13.096 C 80.348 14.216,79.810 14.502,79.702 14.637 C 79.644 14.711,79.022 15.058,78.321 15.408 C 77.620 15.758,76.998 16.093,76.939 16.152 C 76.832 16.260,76.130 16.675,75.342 17.094 C 75.107 17.219,74.614 17.537,74.247 17.800 C 73.880 18.063,73.475 18.278,73.347 18.278 C 73.218 18.278,73.114 18.374,73.114 18.491 C 73.114 18.608,73.003 18.704,72.867 18.704 C 72.732 18.704,72.114 19.086,71.495 19.554 C 70.876 20.021,70.266 20.404,70.141 20.404 C 70.015 20.404,69.857 20.547,69.790 20.723 C 69.723 20.898,69.554 21.041,69.415 21.041 C 69.170 21.041,68.565 21.443,67.812 22.104 C 67.612 22.279,67.205 22.566,66.907 22.742 C 66.284 23.109,65.164 23.954,64.585 24.495 C 64.366 24.700,64.112 24.867,64.020 24.867 C 63.928 24.867,63.426 25.247,62.904 25.711 C 62.382 26.176,61.890 26.558,61.811 26.561 C 61.732 26.565,61.541 26.688,61.386 26.835 C 61.232 26.981,60.770 27.370,60.361 27.699 C 58.468 29.220,57.904 29.697,57.237 30.340 C 56.844 30.720,56.485 31.031,56.440 31.031 C 56.395 31.031,55.977 31.389,55.512 31.828 C 55.047 32.266,54.212 33.007,53.656 33.475 C 52.645 34.326,44.568 42.295,44.716 42.295 C 44.759 42.295,44.400 42.710,43.917 43.216 C 43.434 43.722,42.639 44.607,42.149 45.182 C 41.107 46.407,40.094 47.558,38.902 48.874 C 38.430 49.394,38.041 49.920,38.036 50.043 C 38.031 50.165,37.744 50.500,37.398 50.787 C 37.052 51.074,36.769 51.435,36.769 51.591 C 36.769 51.746,36.622 51.929,36.443 51.998 C 36.263 52.067,35.982 52.375,35.818 52.683 C 35.653 52.990,35.298 53.496,35.028 53.808 C 34.278 54.674,33.964 55.082,33.164 56.226 C 32.759 56.806,32.328 57.396,32.207 57.538 C 31.635 58.210,31.495 58.404,31.243 58.874 C 30.929 59.461,30.644 59.830,30.128 60.317 C 29.923 60.510,29.756 60.749,29.756 60.848 C 29.756 60.947,29.516 61.341,29.224 61.724 C 28.932 62.107,28.693 62.521,28.693 62.643 C 28.693 62.766,28.549 62.921,28.374 62.989 C 28.199 63.056,28.055 63.257,28.055 63.436 C 28.055 63.615,27.966 63.762,27.857 63.762 C 27.748 63.762,27.598 63.953,27.524 64.186 C 27.450 64.419,27.273 64.730,27.130 64.877 C 26.776 65.240,24.867 68.446,24.867 68.677 C 24.867 68.779,24.779 68.863,24.670 68.863 C 24.562 68.863,24.340 69.126,24.178 69.447 C 23.702 70.389,23.284 71.086,23.122 71.208 C 23.039 71.271,22.669 71.892,22.299 72.590 C 21.930 73.287,21.353 74.267,21.018 74.768 C 20.682 75.269,20.349 75.915,20.277 76.203 C 20.204 76.491,20.060 76.727,19.956 76.727 C 19.851 76.727,19.766 76.864,19.766 77.031 C 19.766 77.198,19.647 77.463,19.501 77.621 C 19.354 77.779,18.757 78.862,18.172 80.028 C 17.588 81.193,17.030 82.205,16.932 82.277 C 16.834 82.348,16.762 82.492,16.771 82.595 C 16.790 82.810,15.696 85.066,15.494 85.228 C 15.422 85.287,15.230 85.717,15.067 86.185 C 14.905 86.652,14.660 87.154,14.523 87.299 C 14.387 87.443,14.208 87.868,14.125 88.243 C 14.043 88.617,13.844 89.056,13.683 89.217 C 13.522 89.378,13.390 89.694,13.390 89.920 C 13.390 90.145,13.305 90.329,13.201 90.329 C 13.096 90.329,12.946 90.589,12.866 90.907 C 12.787 91.224,12.537 91.888,12.312 92.383 C 12.087 92.877,11.902 93.342,11.902 93.416 C 11.902 93.490,11.568 94.245,11.160 95.094 C 10.751 95.943,10.357 96.940,10.283 97.309 C 10.209 97.679,10.073 97.981,9.980 97.981 C 9.887 97.981,9.744 98.292,9.663 98.672 C 9.582 99.052,9.336 99.764,9.115 100.254 C 8.895 100.744,8.714 101.289,8.714 101.464 C 8.714 101.638,8.629 101.834,8.526 101.898 C 8.422 101.962,8.271 102.374,8.189 102.814 C 8.108 103.253,7.912 103.900,7.755 104.251 C 7.597 104.601,7.213 105.701,6.901 106.695 C 6.589 107.689,6.258 108.650,6.167 108.831 C 6.075 109.012,5.876 109.730,5.723 110.425 C 5.571 111.121,5.384 111.738,5.308 111.796 C 5.232 111.854,5.064 112.380,4.935 112.965 C 4.806 113.549,4.551 114.551,4.369 115.190 C 4.187 115.829,4.038 116.618,4.038 116.943 C 4.038 117.268,3.958 117.535,3.860 117.535 C 3.762 117.535,3.558 118.371,3.407 119.394 C 3.256 120.417,3.066 121.302,2.986 121.360 C 2.905 121.419,2.736 122.088,2.611 122.848 C 2.486 123.608,2.319 124.516,2.240 124.867 C 2.162 125.218,1.956 126.461,1.784 127.630 C 1.611 128.799,1.382 130.282,1.274 130.925 C 0.670 134.516,0.842 144.952,1.505 144.952 C 1.594 144.952,1.732 145.252,1.813 145.619 C 2.096 146.910,4.770 150.478,5.454 150.478 C 5.610 150.478,5.739 150.567,5.739 150.675 C 5.739 150.784,6.002 151.007,6.323 151.172 C 6.645 151.337,7.338 151.715,7.864 152.012 C 8.390 152.309,9.132 152.619,9.513 152.701 C 9.894 152.784,10.470 152.982,10.792 153.143 C 11.115 153.304,12.166 153.501,13.128 153.582 C 14.090 153.662,14.878 153.803,14.878 153.896 C 14.878 154.139,26.050 154.145,26.508 153.903 C 26.716 153.793,28.273 153.596,29.968 153.465 C 31.663 153.335,33.082 153.136,33.121 153.022 C 33.160 152.909,33.542 152.815,33.971 152.813 C 34.400 152.811,35.300 152.680,35.972 152.522 C 36.645 152.364,37.194 152.281,37.194 152.339 C 37.194 152.396,37.324 152.336,37.482 152.205 C 37.640 152.074,38.213 151.906,38.757 151.831 C 39.300 151.757,39.745 151.621,39.745 151.531 C 39.745 151.440,40.151 151.300,40.648 151.219 C 41.145 151.138,41.838 150.951,42.189 150.804 C 43.577 150.220,45.827 149.416,46.073 149.416 C 46.217 149.416,46.334 149.320,46.334 149.203 C 46.334 149.086,46.447 148.990,46.585 148.990 C 46.860 148.990,47.721 148.605,50.797 147.106 C 51.908 146.564,52.848 146.049,52.887 145.962 C 52.926 145.874,53.079 145.802,53.226 145.802 C 53.374 145.802,53.716 145.611,53.985 145.377 C 54.255 145.143,54.542 144.952,54.623 144.952 C 54.704 144.952,54.991 144.761,55.260 144.527 C 55.530 144.293,55.864 144.102,56.004 144.102 C 56.143 144.102,56.430 143.911,56.642 143.677 C 56.853 143.443,57.111 143.252,57.215 143.252 C 57.406 143.252,57.715 143.028,58.464 142.349 C 58.689 142.144,58.945 141.977,59.033 141.976 C 59.121 141.976,59.479 141.738,59.830 141.447 C 61.047 140.437,62.095 139.529,62.899 138.789 C 63.343 138.379,63.886 137.891,64.106 137.703 C 64.326 137.515,64.660 137.180,64.847 136.959 C 65.035 136.738,65.370 136.403,65.591 136.216 C 66.056 135.822,68.221 133.483,69.237 132.278 C 70.744 130.488,70.988 130.175,70.988 130.021 C 70.988 129.934,71.156 129.686,71.360 129.472 C 71.565 129.257,71.876 128.866,72.051 128.602 C 72.226 128.338,72.534 127.928,72.735 127.691 C 72.937 127.455,73.158 127.081,73.228 126.861 C 73.298 126.641,73.447 126.461,73.560 126.461 C 73.672 126.461,73.826 126.301,73.901 126.106 C 73.976 125.910,74.212 125.575,74.426 125.362 C 74.639 125.148,74.814 124.830,74.814 124.655 C 74.814 124.479,74.912 124.336,75.032 124.336 C 75.152 124.336,75.341 124.097,75.452 123.804 C 75.563 123.512,75.752 123.273,75.871 123.273 C 75.991 123.273,76.089 123.162,76.089 123.027 C 76.089 122.778,77.640 120.584,78.093 120.191 C 78.228 120.074,78.547 119.637,78.802 119.219 C 79.058 118.801,79.511 118.179,79.809 117.837 C 80.462 117.089,80.444 117.113,81.600 115.515 C 82.107 114.814,82.631 114.145,82.763 114.028 C 82.895 113.911,83.407 113.289,83.900 112.646 C 84.394 112.003,85.134 111.133,85.545 110.711 C 85.955 110.290,86.291 109.873,86.291 109.785 C 86.291 109.697,86.793 109.105,87.407 108.470 C 88.021 107.835,88.905 106.886,89.373 106.361 C 91.953 103.464,98.682 96.918,99.081 96.918 C 99.216 96.918,99.268 96.859,99.195 96.787 C 99.123 96.714,99.466 96.321,99.957 95.913 C 100.448 95.505,100.882 95.086,100.921 94.982 C 100.960 94.878,101.076 94.793,101.180 94.793 C 101.283 94.793,101.702 94.458,102.111 94.049 C 102.520 93.640,102.933 93.305,103.028 93.305 C 103.122 93.305,103.349 93.138,103.531 92.933 C 103.713 92.728,104.141 92.348,104.481 92.087 C 104.822 91.826,105.292 91.465,105.526 91.286 C 107.285 89.939,108.513 88.934,108.572 88.795 C 108.611 88.704,108.758 88.629,108.897 88.629 C 109.037 88.629,109.302 88.462,109.487 88.257 C 110.029 87.656,110.656 87.195,111.136 87.042 C 111.382 86.964,111.583 86.809,111.583 86.697 C 111.583 86.585,111.823 86.402,112.115 86.291 C 112.407 86.180,112.646 85.991,112.646 85.871 C 112.646 85.752,112.755 85.654,112.887 85.654 C 113.020 85.654,113.953 85.047,114.960 84.305 C 115.967 83.563,117.221 82.665,117.747 82.308 C 118.273 81.952,118.933 81.459,119.214 81.213 C 119.495 80.967,119.833 80.765,119.964 80.765 C 120.096 80.765,120.361 80.598,120.554 80.393 C 121.127 79.786,121.530 79.496,122.099 79.280 C 122.394 79.167,122.635 78.977,122.635 78.858 C 122.635 78.738,122.738 78.640,122.862 78.640 C 122.987 78.640,123.402 78.401,123.786 78.108 C 124.169 77.816,124.585 77.577,124.710 77.577 C 124.835 77.577,124.970 77.505,125.009 77.418 C 125.118 77.171,126.393 76.317,126.989 76.090 C 127.283 75.979,127.524 75.797,127.524 75.686 C 127.524 75.576,127.803 75.424,128.144 75.349 C 128.485 75.274,128.812 75.088,128.870 74.935 C 128.929 74.781,129.247 74.588,129.577 74.506 C 129.907 74.423,130.225 74.287,130.285 74.204 C 130.344 74.120,130.943 73.777,131.615 73.442 C 132.287 73.106,132.837 72.752,132.837 72.654 C 132.837 72.556,132.958 72.476,133.105 72.476 C 133.253 72.476,134.138 72.096,135.071 71.631 C 136.005 71.167,136.846 70.784,136.940 70.781 C 137.035 70.778,137.513 70.595,138.003 70.375 C 138.494 70.154,139.230 69.903,139.639 69.817 C 140.048 69.730,140.437 69.574,140.504 69.469 C 140.571 69.365,141.264 69.219,142.045 69.147 C 142.826 69.074,143.464 68.932,143.464 68.832 C 143.464 68.595,145.955 68.595,146.102 68.832 C 146.164 68.932,146.805 69.075,147.527 69.151 C 148.250 69.226,148.946 69.367,149.075 69.463 C 149.204 69.560,149.740 69.759,150.266 69.906 C 151.298 70.195,153.735 71.451,154.237 71.954 C 154.407 72.124,154.779 72.321,155.063 72.393 C 155.347 72.464,155.579 72.596,155.579 72.686 C 155.579 72.776,155.866 72.968,156.217 73.114 C 156.567 73.259,156.854 73.460,156.854 73.561 C 156.854 73.661,157.094 73.803,157.386 73.877 C 157.678 73.950,157.917 74.098,157.917 74.205 C 157.917 74.312,158.156 74.490,158.448 74.601 C 158.741 74.713,158.980 74.902,158.980 75.021 C 158.980 75.141,159.116 75.239,159.282 75.239 C 159.449 75.239,159.869 75.478,160.216 75.770 C 160.564 76.063,160.913 76.302,160.992 76.302 C 161.071 76.302,161.264 76.421,161.421 76.567 C 161.579 76.714,162.192 77.120,162.784 77.471 C 163.376 77.821,163.862 78.180,163.864 78.268 C 163.866 78.355,163.992 78.427,164.144 78.427 C 164.295 78.427,164.606 78.571,164.835 78.746 C 165.624 79.352,166.863 80.128,167.043 80.128 C 167.142 80.128,167.275 80.262,167.338 80.426 C 167.401 80.591,167.738 80.788,168.087 80.864 C 168.436 80.941,168.774 81.141,168.838 81.309 C 168.903 81.478,169.098 81.615,169.271 81.615 C 169.444 81.615,169.662 81.737,169.756 81.885 C 169.849 82.034,170.165 82.274,170.457 82.418 C 170.749 82.563,171.371 82.923,171.838 83.220 C 172.306 83.516,172.856 83.814,173.061 83.881 C 173.265 83.948,173.433 84.076,173.433 84.165 C 173.433 84.254,173.743 84.452,174.123 84.606 C 174.503 84.760,174.862 84.951,174.920 85.032 C 175.014 85.160,179.007 87.286,182.359 88.991 C 183.002 89.318,183.576 89.633,183.634 89.692 C 183.693 89.750,184.362 90.085,185.122 90.436 C 185.882 90.786,186.580 91.193,186.674 91.339 C 186.767 91.485,187.016 91.605,187.226 91.605 C 187.436 91.605,187.828 91.796,188.098 92.030 C 188.367 92.264,188.765 92.455,188.980 92.455 C 189.196 92.455,189.373 92.540,189.373 92.644 C 189.373 92.748,189.803 92.960,190.329 93.115 C 190.855 93.271,191.286 93.457,191.286 93.530 C 191.286 93.603,191.668 93.788,192.136 93.943 C 192.604 94.097,192.986 94.296,192.986 94.385 C 192.986 94.474,193.273 94.609,193.624 94.687 C 193.974 94.764,194.261 94.911,194.261 95.014 C 194.261 95.117,194.644 95.315,195.112 95.456 C 195.579 95.596,195.962 95.776,195.962 95.855 C 195.962 95.935,196.344 96.115,196.812 96.255 C 197.279 96.396,197.662 96.602,197.662 96.714 C 197.662 96.826,197.777 96.918,197.918 96.918 C 198.059 96.918,199.327 97.483,200.735 98.173 C 202.142 98.864,203.796 99.652,204.410 99.926 C 205.024 100.199,205.526 100.487,205.526 100.566 C 205.526 100.645,205.813 100.773,206.164 100.850 C 206.514 100.927,206.801 101.078,206.801 101.186 C 206.801 101.293,206.873 101.364,206.961 101.344 C 207.048 101.323,207.646 101.551,208.289 101.850 C 208.932 102.149,209.697 102.466,209.989 102.554 C 210.282 102.642,210.569 102.773,210.627 102.845 C 210.802 103.061,212.603 103.892,213.231 104.047 C 213.552 104.126,213.815 104.266,213.815 104.357 C 213.815 104.449,214.078 104.588,214.400 104.668 C 215.039 104.825,216.833 105.657,217.003 105.874 C 217.062 105.949,217.540 106.136,218.066 106.289 C 218.592 106.443,219.070 106.632,219.129 106.709 C 219.313 106.955,221.598 107.970,221.965 107.970 C 222.159 107.970,222.317 108.066,222.317 108.183 C 222.317 108.300,222.413 108.395,222.532 108.395 C 222.650 108.395,223.200 108.599,223.754 108.848 C 224.308 109.097,225.143 109.471,225.611 109.679 C 226.079 109.887,226.996 110.305,227.651 110.608 C 228.305 110.911,228.998 111.158,229.192 111.158 C 229.385 111.158,229.543 111.246,229.543 111.354 C 229.543 111.462,229.830 111.613,230.181 111.690 C 230.531 111.767,230.818 111.906,230.818 111.999 C 230.818 112.092,231.105 112.225,231.456 112.295 C 231.807 112.366,232.503 112.610,233.004 112.838 C 233.505 113.066,234.198 113.321,234.545 113.404 C 234.892 113.487,235.271 113.610,235.388 113.678 C 235.932 113.993,238.433 114.771,239.304 114.897 C 239.839 114.974,240.385 115.124,240.518 115.229 C 240.650 115.334,241.391 115.480,242.165 115.552 C 242.938 115.624,243.571 115.759,243.571 115.852 C 243.571 115.944,243.738 116.023,243.943 116.027 C 244.147 116.031,247.327 116.109,251.010 116.200 C 257.314 116.356,266.922 116.202,268.332 115.922 C 268.682 115.852,269.830 115.680,270.882 115.538 C 271.934 115.396,272.938 115.223,273.114 115.152 C 273.419 115.029,276.334 114.526,276.886 114.500 C 277.032 114.494,277.152 114.419,277.152 114.335 C 277.152 114.251,277.582 114.118,278.108 114.039 C 278.634 113.960,279.065 113.824,279.065 113.736 C 279.065 113.648,279.538 113.455,280.115 113.307 C 280.693 113.159,281.195 112.974,281.231 112.895 C 281.267 112.817,281.775 112.514,282.359 112.222 C 283.253 111.775,285.248 109.988,286.236 108.749 C 286.381 108.567,286.618 107.959,286.764 107.397 C 286.909 106.836,287.095 106.326,287.178 106.266 C 287.528 106.007,287.458 100.017,287.107 100.234 C 287.009 100.294,286.929 100.081,286.929 99.760 C 286.929 98.947,286.449 96.706,286.276 96.706 C 286.197 96.706,286.070 96.311,285.993 95.829 C 285.861 95.008,285.557 94.214,284.573 92.122 C 284.349 91.647,284.166 91.145,284.166 91.006 C 284.166 90.868,284.078 90.755,283.970 90.755 C 283.863 90.755,283.711 90.467,283.634 90.115 C 283.557 89.763,283.381 89.356,283.244 89.211 C 283.108 89.066,282.713 88.374,282.368 87.673 C 282.022 86.971,281.681 86.350,281.608 86.291 C 281.536 86.233,281.201 85.635,280.864 84.963 C 280.527 84.291,280.186 83.741,280.106 83.741 C 280.026 83.741,279.903 83.511,279.833 83.229 C 279.762 82.948,279.368 82.208,278.958 81.584 C 278.547 80.960,278.157 80.282,278.092 80.076 C 278.027 79.871,277.884 79.702,277.775 79.702 C 277.666 79.702,277.577 79.605,277.577 79.485 C 277.577 79.250,276.575 77.646,276.143 77.190 C 275.996 77.035,275.877 76.769,275.877 76.599 C 275.877 76.428,275.733 76.233,275.558 76.166 C 275.383 76.099,275.239 75.954,275.239 75.845 C 275.239 75.736,274.857 75.128,274.389 74.495 C 273.921 73.862,273.539 73.289,273.539 73.220 C 273.539 73.032,272.264 71.278,271.679 70.661 C 271.533 70.507,271.412 70.302,271.411 70.206 C 271.409 70.110,271.217 69.793,270.984 69.501 C 270.337 68.689,269.501 67.378,269.501 67.176 C 269.501 67.077,269.357 66.940,269.182 66.873 C 269.006 66.806,268.863 66.636,268.863 66.496 C 268.863 66.356,268.716 66.090,268.537 65.905 C 267.916 65.262,267.163 64.292,267.163 64.134 C 267.163 63.972,267.086 63.877,265.774 62.404 C 265.369 61.949,265.037 61.509,265.037 61.426 C 265.037 61.343,264.774 60.984,264.453 60.629 C 263.404 59.471,262.912 58.841,262.912 58.655 C 262.912 58.555,262.744 58.348,262.540 58.195 C 262.335 58.042,261.884 57.535,261.536 57.067 C 261.189 56.599,260.591 55.919,260.208 55.554 C 259.825 55.190,259.511 54.816,259.511 54.724 C 259.511 54.632,259.152 54.198,258.714 53.759 C 258.276 53.320,257.056 52.034,256.004 50.902 C 254.952 49.770,253.395 48.159,252.543 47.323 C 251.691 46.487,250.103 44.918,249.014 43.836 C 247.925 42.755,246.977 41.870,246.909 41.870 C 246.841 41.870,245.878 40.986,244.770 39.904 C 242.557 37.746,242.095 37.333,239.745 35.414 C 238.868 34.698,238.074 33.993,237.981 33.847 C 237.887 33.701,237.689 33.581,237.540 33.581 C 237.391 33.581,237.044 33.342,236.769 33.050 C 236.495 32.758,236.151 32.519,236.006 32.519 C 235.861 32.519,235.710 32.431,235.671 32.324 C 235.632 32.217,234.835 31.551,233.900 30.845 C 232.965 30.138,232.104 29.483,231.987 29.388 C 231.670 29.131,227.997 26.690,227.744 26.567 C 227.450 26.425,226.276 25.650,226.142 25.509 C 226.084 25.448,225.749 25.255,225.399 25.080 C 225.048 24.905,224.713 24.709,224.655 24.645 C 224.596 24.581,224.070 24.254,223.486 23.919 C 222.901 23.584,222.374 23.237,222.315 23.149 C 222.255 23.060,221.936 22.920,221.607 22.838 C 221.277 22.755,220.960 22.565,220.903 22.415 C 220.845 22.265,220.550 22.080,220.246 22.004 C 219.942 21.928,219.458 21.680,219.170 21.453 C 218.882 21.227,218.516 21.041,218.356 21.041 C 218.196 21.041,218.066 20.953,218.066 20.845 C 218.066 20.738,217.710 20.532,217.275 20.388 C 216.840 20.245,216.355 19.998,216.197 19.840 C 216.039 19.683,215.773 19.554,215.606 19.554 C 215.440 19.554,215.303 19.465,215.303 19.358 C 215.303 19.250,214.944 19.045,214.506 18.902 C 214.067 18.759,213.661 18.582,213.603 18.508 C 213.387 18.236,210.025 16.620,209.380 16.478 C 209.014 16.398,208.714 16.251,208.714 16.153 C 208.714 16.054,208.355 15.857,207.917 15.714 C 207.479 15.572,206.931 15.325,206.701 15.166 C 206.470 15.008,206.112 14.878,205.904 14.878 C 205.696 14.878,205.526 14.782,205.526 14.665 C 205.526 14.548,205.433 14.453,205.320 14.453 C 205.206 14.453,204.591 14.214,203.952 13.921 C 203.313 13.629,202.641 13.390,202.458 13.390 C 202.275 13.390,202.125 13.304,202.125 13.199 C 202.125 13.093,201.647 12.893,201.063 12.752 C 200.478 12.612,200.000 12.429,200.000 12.346 C 200.000 12.263,199.498 12.068,198.884 11.912 C 198.270 11.756,197.721 11.567,197.662 11.491 C 197.604 11.416,197.221 11.244,196.812 11.109 C 196.403 10.975,195.590 10.708,195.005 10.517 C 194.421 10.326,193.794 10.093,193.613 9.998 C 193.432 9.904,192.734 9.703,192.063 9.553 C 191.391 9.403,190.792 9.200,190.732 9.103 C 190.672 9.006,190.461 8.926,190.264 8.925 C 190.066 8.925,189.656 8.794,189.353 8.636 C 189.049 8.478,188.164 8.222,187.387 8.067 C 186.609 7.912,185.972 7.721,185.972 7.643 C 185.972 7.564,185.255 7.376,184.378 7.226 C 183.502 7.076,182.784 6.883,182.784 6.796 C 182.784 6.709,182.260 6.572,181.619 6.492 C 180.978 6.412,180.404 6.267,180.345 6.171 C 180.285 6.074,179.423 5.874,178.428 5.727 C 177.434 5.579,176.621 5.385,176.621 5.296 C 176.621 5.207,175.998 5.068,175.236 4.987 C 174.475 4.905,173.805 4.763,173.748 4.671 C 173.691 4.579,172.641 4.381,171.413 4.231 C 170.186 4.081,169.182 3.895,169.182 3.818 C 169.182 3.741,168.919 3.670,168.597 3.660 C 168.276 3.650,167.391 3.541,166.631 3.417 C 165.871 3.293,164.891 3.191,164.453 3.190 C 164.014 3.189,163.656 3.109,163.656 3.012 C 163.656 2.915,162.675 2.723,161.477 2.584 C 155.037 1.840,153.873 1.725,152.657 1.713 C 151.926 1.706,151.328 1.611,151.328 1.501 C 151.328 1.391,151.161 1.304,150.956 1.306 C 150.752 1.309,148.241 1.256,145.377 1.188 C 135.455 0.954,128.885 0.925,124.548 1.094 M375.149 58.259 C 372.996 58.354,371.083 58.497,370.899 58.579 C 370.484 58.761,370.275 58.792,367.380 59.088 C 366.097 59.219,364.949 59.404,364.829 59.499 C 364.710 59.593,364.134 59.739,363.549 59.823 C 362.965 59.907,362.391 60.046,362.274 60.131 C 362.157 60.216,361.392 60.411,360.574 60.564 C 359.756 60.717,358.990 60.912,358.874 60.999 C 358.757 61.085,358.159 61.274,357.545 61.417 C 356.931 61.561,356.429 61.765,356.429 61.870 C 356.429 61.976,356.262 62.062,356.057 62.063 C 355.853 62.064,355.411 62.207,355.077 62.382 C 354.742 62.556,354.383 62.699,354.280 62.699 C 354.177 62.699,353.447 62.996,352.657 63.358 C 350.239 64.467,349.891 64.612,349.649 64.612 C 349.521 64.612,349.416 64.687,349.416 64.779 C 349.416 64.870,348.842 65.218,348.140 65.551 C 347.439 65.884,346.865 66.222,346.865 66.301 C 346.865 66.381,346.530 66.577,346.121 66.738 C 345.712 66.898,345.377 67.097,345.377 67.179 C 345.377 67.262,345.156 67.385,344.885 67.453 C 344.451 67.561,344.145 67.767,343.101 68.646 C 342.960 68.765,342.763 68.863,342.663 68.863 C 342.563 68.863,342.296 69.030,342.070 69.235 C 341.843 69.439,341.251 69.883,340.755 70.220 C 340.258 70.558,339.851 70.916,339.851 71.017 C 339.851 71.118,339.754 71.201,339.636 71.201 C 339.517 71.201,338.919 71.613,338.307 72.117 C 334.743 75.053,331.540 78.299,329.127 81.421 C 328.547 82.171,327.949 82.861,327.798 82.954 C 327.647 83.048,327.524 83.242,327.524 83.385 C 327.524 83.529,327.357 83.804,327.152 83.997 C 326.545 84.570,326.254 84.973,326.038 85.542 C 325.926 85.837,325.736 86.079,325.616 86.079 C 325.497 86.079,325.399 86.184,325.399 86.314 C 325.399 86.443,325.158 86.849,324.864 87.217 C 324.570 87.584,324.248 87.987,324.149 88.111 C 324.049 88.235,323.845 88.570,323.695 88.855 C 323.545 89.140,323.364 89.421,323.294 89.479 C 323.223 89.538,322.879 90.016,322.529 90.542 C 322.178 91.068,321.724 91.684,321.520 91.910 C 321.315 92.137,321.148 92.448,321.148 92.601 C 321.148 92.754,321.049 92.880,320.929 92.880 C 320.808 92.880,320.648 93.040,320.573 93.236 C 320.498 93.431,320.286 93.759,320.101 93.964 C 319.678 94.436,318.798 95.580,317.913 96.812 C 317.293 97.674,314.450 101.145,313.071 102.723 C 311.731 104.256,311.492 104.527,310.202 105.963 C 307.848 108.583,302.271 114.035,300.106 115.831 C 299.230 116.559,297.843 117.791,296.694 118.863 C 296.098 119.418,295.547 119.873,295.468 119.873 C 295.389 119.873,295.037 120.109,294.687 120.398 C 293.515 121.363,292.401 122.313,292.001 122.689 C 291.783 122.893,291.533 123.061,291.445 123.061 C 291.305 123.061,290.727 123.499,289.699 124.383 C 289.528 124.530,289.070 124.866,288.682 125.130 C 288.294 125.393,287.771 125.800,287.519 126.035 C 287.267 126.269,286.984 126.461,286.889 126.461 C 286.794 126.461,286.532 126.629,286.306 126.833 C 285.554 127.516,285.216 127.767,283.783 128.709 C 283.000 129.223,282.264 129.722,282.147 129.817 C 282.030 129.912,281.767 130.053,281.562 130.132 C 281.358 130.210,281.190 130.372,281.190 130.493 C 281.190 130.613,281.083 130.712,280.953 130.712 C 280.823 130.712,280.229 131.071,279.633 131.509 C 278.486 132.353,278.100 132.598,276.993 133.187 C 276.613 133.389,276.302 133.632,276.302 133.727 C 276.302 133.822,276.173 133.900,276.016 133.900 C 275.858 133.900,275.509 134.091,275.239 134.325 C 274.970 134.559,274.625 134.750,274.473 134.750 C 274.322 134.750,274.121 134.872,274.028 135.020 C 273.934 135.169,273.618 135.409,273.326 135.554 C 273.034 135.699,272.508 136.008,272.157 136.241 C 271.807 136.474,271.209 136.809,270.829 136.985 C 270.449 137.162,270.138 137.390,270.138 137.493 C 270.138 137.596,269.908 137.737,269.627 137.808 C 269.346 137.879,268.604 138.275,267.980 138.688 C 267.355 139.101,266.629 139.495,266.366 139.562 C 266.103 139.630,265.887 139.766,265.887 139.866 C 265.887 139.965,265.505 140.161,265.037 140.301 C 264.570 140.442,264.187 140.637,264.187 140.735 C 264.187 140.833,264.003 140.914,263.777 140.914 C 263.552 140.914,263.241 141.039,263.086 141.192 C 262.932 141.345,262.351 141.596,261.796 141.751 C 261.241 141.905,260.786 142.109,260.786 142.204 C 260.786 142.298,260.332 142.443,259.777 142.524 C 259.222 142.606,258.699 142.780,258.616 142.909 C 258.404 143.239,251.186 143.235,250.777 142.904 C 250.613 142.772,250.143 142.593,249.734 142.508 C 249.325 142.423,248.895 142.280,248.778 142.192 C 248.661 142.104,248.207 141.916,247.768 141.775 C 247.330 141.634,246.971 141.438,246.971 141.339 C 246.971 141.241,246.684 141.097,246.334 141.020 C 245.983 140.943,245.696 140.790,245.696 140.679 C 245.696 140.569,245.456 140.387,245.162 140.275 C 244.679 140.091,243.411 139.283,243.146 138.990 C 243.087 138.925,242.657 138.590,242.189 138.246 C 240.920 137.311,240.812 137.226,240.367 136.823 C 240.142 136.618,239.894 136.451,239.816 136.451 C 239.738 136.451,239.523 136.304,239.338 136.126 C 238.792 135.599,237.112 134.546,236.810 134.542 C 236.657 134.539,236.587 134.449,236.654 134.340 C 236.721 134.232,236.573 134.079,236.325 134.000 C 235.920 133.872,235.512 133.592,234.780 132.941 C 234.647 132.823,234.299 132.606,234.006 132.459 C 233.714 132.312,233.092 131.959,232.625 131.674 C 232.157 131.390,231.560 131.042,231.296 130.901 C 231.033 130.759,230.818 130.563,230.818 130.465 C 230.818 130.367,230.688 130.287,230.528 130.287 C 230.369 130.287,230.002 130.102,229.714 129.875 C 229.426 129.648,228.935 129.399,228.623 129.321 C 228.311 129.242,228.055 129.104,228.055 129.014 C 228.055 128.924,227.744 128.725,227.365 128.572 C 226.985 128.418,226.597 128.168,226.504 128.015 C 226.410 127.862,226.195 127.736,226.026 127.736 C 225.856 127.736,225.717 127.648,225.717 127.540 C 225.717 127.433,225.383 127.234,224.973 127.099 C 224.564 126.964,224.230 126.773,224.230 126.674 C 224.230 126.575,223.871 126.377,223.433 126.234 C 222.994 126.091,222.588 125.915,222.529 125.842 C 222.471 125.768,222.184 125.585,221.892 125.433 C 220.820 124.878,219.943 124.369,219.138 123.836 C 218.684 123.536,218.066 123.228,217.764 123.152 C 217.463 123.076,217.216 122.948,217.216 122.868 C 217.216 122.787,216.857 122.593,216.419 122.436 C 215.980 122.279,215.574 122.092,215.515 122.021 C 215.302 121.762,213.212 120.723,212.903 120.723 C 212.728 120.723,212.532 120.584,212.467 120.416 C 212.403 120.247,212.010 120.045,211.595 119.967 C 211.179 119.889,210.840 119.757,210.840 119.674 C 210.840 119.481,209.215 118.672,208.448 118.483 C 208.127 118.403,207.864 118.269,207.864 118.183 C 207.864 118.098,207.481 117.901,207.014 117.747 C 206.546 117.593,206.164 117.386,206.164 117.288 C 206.164 117.190,206.062 117.109,205.938 117.109 C 205.599 117.109,203.305 116.001,203.224 115.798 C 203.185 115.701,203.022 115.622,202.863 115.622 C 202.703 115.622,202.159 115.406,201.653 115.143 C 201.146 114.880,200.185 114.430,199.516 114.142 C 198.847 113.855,198.300 113.544,198.300 113.451 C 198.300 113.359,198.173 113.284,198.018 113.284 C 197.864 113.284,197.019 112.912,196.142 112.459 C 195.265 112.005,194.244 111.567,193.873 111.485 C 193.502 111.404,193.199 111.251,193.199 111.146 C 193.199 111.040,192.960 110.894,192.667 110.821 C 192.375 110.747,192.136 110.602,192.136 110.498 C 192.136 110.393,192.024 110.308,191.887 110.308 C 191.750 110.308,191.009 110.012,190.240 109.651 C 189.471 109.289,188.172 108.678,187.354 108.294 C 186.536 107.909,185.137 107.248,184.246 106.826 C 183.355 106.403,182.518 106.057,182.386 106.057 C 182.254 106.057,182.147 105.969,182.147 105.862 C 182.147 105.754,181.850 105.601,181.487 105.521 C 181.124 105.442,180.269 105.099,179.586 104.760 C 178.903 104.422,178.294 104.145,178.233 104.145 C 178.171 104.145,177.594 103.903,176.949 103.609 C 176.305 103.314,175.489 103.015,175.136 102.944 C 174.784 102.874,174.495 102.737,174.495 102.640 C 174.495 102.543,174.160 102.401,173.751 102.324 C 173.342 102.247,173.007 102.117,173.007 102.036 C 173.007 101.954,172.517 101.761,171.918 101.608 C 171.319 101.454,170.577 101.198,170.271 101.037 C 169.964 100.877,169.570 100.745,169.394 100.744 C 169.219 100.742,168.808 100.602,168.482 100.432 C 168.156 100.261,167.557 100.060,167.151 99.984 C 166.746 99.908,166.368 99.771,166.312 99.681 C 166.256 99.590,165.588 99.392,164.827 99.241 C 164.066 99.089,163.443 98.898,163.443 98.816 C 163.443 98.734,162.989 98.599,162.434 98.516 C 161.878 98.433,161.328 98.304,161.211 98.229 C 161.095 98.155,160.951 98.087,160.893 98.078 C 159.721 97.911,157.546 97.451,157.386 97.338 C 157.269 97.255,156.217 97.072,155.048 96.931 C 153.879 96.789,152.731 96.587,152.497 96.481 C 152.264 96.374,151.164 96.193,150.053 96.076 C 148.943 95.960,147.125 95.760,146.015 95.630 C 143.339 95.318,132.945 95.523,131.987 95.907 C 131.812 95.977,130.809 96.097,129.759 96.173 C 128.708 96.249,127.800 96.384,127.740 96.473 C 127.679 96.562,126.771 96.753,125.721 96.898 C 124.670 97.042,123.762 97.236,123.701 97.328 C 123.641 97.419,123.209 97.565,122.742 97.651 C 121.620 97.857,118.153 99.379,117.995 99.734 C 117.956 99.822,117.786 99.894,117.616 99.894 C 117.447 99.894,117.255 100.034,117.189 100.204 C 117.124 100.375,116.887 100.573,116.664 100.644 C 116.152 100.806,113.921 103.057,113.921 103.411 C 113.921 103.555,113.790 103.724,113.629 103.786 C 113.469 103.848,113.274 104.233,113.198 104.643 C 113.121 105.053,112.959 105.422,112.838 105.462 C 112.266 105.653,112.272 113.763,112.845 114.129 C 112.941 114.190,113.089 114.671,113.175 115.197 C 113.261 115.723,113.512 116.554,113.732 117.045 C 113.953 117.535,114.134 118.038,114.134 118.161 C 114.134 118.285,114.325 118.743,114.559 119.179 C 114.793 119.616,114.984 120.093,114.984 120.241 C 114.984 120.389,115.080 120.510,115.197 120.510 C 115.313 120.510,115.409 120.600,115.409 120.709 C 115.409 120.818,115.520 121.177,115.656 121.506 C 115.792 121.835,115.887 122.176,115.869 122.264 C 115.850 122.351,115.930 122.423,116.047 122.423 C 116.164 122.423,116.259 122.560,116.259 122.727 C 116.259 122.894,116.390 123.161,116.550 123.321 C 116.710 123.481,116.914 123.846,117.004 124.133 C 117.093 124.420,117.608 125.402,118.147 126.316 C 118.687 127.230,119.264 128.233,119.431 128.546 C 119.597 128.859,119.860 129.242,120.015 129.397 C 120.170 129.553,120.298 129.775,120.298 129.892 C 120.298 130.009,120.607 130.552,120.986 131.099 C 121.364 131.646,121.678 132.141,121.682 132.200 C 121.686 132.258,121.870 132.593,122.090 132.944 C 122.309 133.294,122.713 133.938,122.987 134.374 C 123.261 134.810,123.486 135.264,123.486 135.383 C 123.486 135.503,123.584 135.600,123.705 135.600 C 123.825 135.600,123.987 135.768,124.064 135.972 C 124.140 136.177,124.502 136.775,124.867 137.301 C 125.232 137.827,125.594 138.425,125.671 138.629 C 125.747 138.834,125.909 139.001,126.029 139.001 C 126.150 139.001,126.249 139.124,126.249 139.275 C 126.249 139.426,126.823 140.331,127.524 141.287 C 128.225 142.243,128.799 143.109,128.799 143.211 C 128.799 143.314,128.990 143.572,129.224 143.783 C 129.458 143.995,129.649 144.297,129.649 144.454 C 129.649 144.611,129.748 144.740,129.869 144.740 C 129.989 144.740,130.148 144.907,130.222 145.112 C 130.296 145.316,130.487 145.627,130.647 145.802 C 131.338 146.559,131.987 147.408,131.987 147.556 C 131.987 147.643,132.155 147.900,132.359 148.125 C 132.794 148.605,132.955 148.807,133.799 149.947 C 134.145 150.414,134.549 150.874,134.696 150.967 C 134.843 151.060,134.963 151.236,134.963 151.357 C 134.963 151.478,135.274 151.918,135.654 152.334 C 136.033 152.750,136.488 153.247,136.663 153.438 C 136.838 153.630,137.251 154.144,137.581 154.581 C 137.910 155.019,138.389 155.600,138.644 155.873 C 138.899 156.146,139.538 156.866,140.064 157.472 C 140.590 158.079,141.211 158.795,141.445 159.065 C 143.675 161.635,144.698 162.721,147.951 165.972 C 150.010 168.030,152.483 170.430,153.448 171.307 C 154.413 172.184,155.356 173.069,155.544 173.273 C 155.732 173.478,155.957 173.645,156.044 173.645 C 156.131 173.645,156.520 173.956,156.907 174.336 C 157.295 174.716,158.374 175.645,159.305 176.401 C 160.237 177.157,161.075 177.898,161.169 178.048 C 161.262 178.198,161.430 178.321,161.541 178.321 C 161.652 178.321,161.927 178.488,162.153 178.693 C 162.598 179.097,162.709 179.184,163.975 180.116 C 164.442 180.460,164.901 180.867,164.995 181.019 C 165.088 181.172,165.279 181.297,165.420 181.297 C 165.560 181.298,165.962 181.562,166.312 181.884 C 166.663 182.207,167.213 182.587,167.535 182.729 C 167.856 182.871,168.119 183.085,168.119 183.205 C 168.119 183.324,168.230 183.422,168.365 183.422 C 168.500 183.422,168.924 183.661,169.307 183.953 C 169.690 184.245,170.098 184.485,170.213 184.485 C 170.327 184.485,170.453 184.556,170.492 184.644 C 170.531 184.732,171.137 185.184,171.838 185.650 C 173.587 186.811,173.857 186.973,174.686 187.364 C 175.083 187.551,175.544 187.841,175.710 188.007 C 175.877 188.174,176.150 188.310,176.317 188.310 C 176.484 188.310,176.621 188.400,176.621 188.509 C 176.621 188.618,176.955 188.829,177.365 188.977 C 177.774 189.125,178.108 189.316,178.108 189.402 C 178.108 189.488,178.443 189.679,178.852 189.827 C 179.261 189.975,179.596 190.152,179.596 190.220 C 179.596 190.288,180.143 190.628,180.811 190.975 C 181.479 191.321,182.155 191.724,182.314 191.870 C 182.472 192.016,182.731 192.136,182.888 192.136 C 183.045 192.136,183.206 192.213,183.245 192.306 C 183.326 192.500,186.051 193.836,186.366 193.836 C 186.481 193.836,186.606 193.908,186.645 193.996 C 186.736 194.200,189.018 195.324,189.341 195.324 C 189.476 195.324,189.586 195.412,189.586 195.520 C 189.586 195.628,189.921 195.827,190.332 195.963 C 190.743 196.098,191.579 196.475,192.192 196.800 C 192.804 197.126,193.544 197.461,193.836 197.547 C 194.328 197.690,194.735 197.860,196.844 198.803 C 197.271 198.994,197.773 199.150,197.960 199.150 C 198.147 199.150,198.300 199.230,198.300 199.329 C 198.300 199.427,198.706 199.623,199.203 199.764 C 199.700 199.904,200.298 200.106,200.531 200.211 C 202.277 200.996,202.971 201.256,203.666 201.386 C 204.105 201.468,204.463 201.607,204.463 201.695 C 204.463 201.783,205.037 201.977,205.739 202.125 C 206.440 202.274,207.014 202.479,207.014 202.580 C 207.014 202.680,207.199 202.763,207.425 202.763 C 207.651 202.763,208.106 202.875,208.435 203.011 C 208.764 203.147,209.081 203.269,209.139 203.282 C 209.948 203.456,211.451 203.900,211.727 204.046 C 211.922 204.150,212.712 204.350,213.480 204.492 C 214.249 204.633,214.878 204.819,214.878 204.905 C 214.878 204.991,215.356 205.127,215.940 205.207 C 216.525 205.288,217.003 205.440,217.003 205.546 C 217.003 205.652,217.075 205.722,217.163 205.701 C 217.484 205.626,220.616 206.251,220.616 206.391 C 220.616 206.470,221.525 206.660,222.635 206.812 C 223.746 206.965,224.655 207.157,224.655 207.239 C 224.655 207.322,225.300 207.458,226.089 207.542 C 226.878 207.626,227.670 207.773,227.848 207.868 C 228.027 207.963,229.175 208.151,230.399 208.286 C 231.623 208.421,232.772 208.609,232.952 208.703 C 233.132 208.797,234.089 208.945,235.078 209.031 C 236.067 209.117,236.971 209.246,237.088 209.317 C 237.375 209.491,237.502 209.508,240.914 209.809 C 242.550 209.953,243.937 210.134,243.996 210.210 C 244.135 210.392,251.358 210.841,254.145 210.840 C 255.343 210.840,256.323 210.924,256.323 211.028 C 256.323 211.132,257.303 211.237,258.502 211.261 C 259.700 211.286,262.497 211.369,264.718 211.445 C 269.432 211.607,278.367 211.359,278.903 211.051 C 279.106 210.935,279.707 210.840,280.239 210.840 C 281.743 210.840,285.911 210.375,286.504 210.142 C 286.679 210.072,287.677 209.908,288.721 209.777 C 289.764 209.646,290.776 209.454,290.969 209.351 C 291.161 209.248,291.816 209.098,292.423 209.017 C 293.030 208.937,293.574 208.794,293.632 208.701 C 293.690 208.608,294.453 208.416,295.327 208.275 C 296.202 208.134,296.918 207.948,296.918 207.862 C 296.918 207.776,297.396 207.643,297.981 207.565 C 298.565 207.488,299.044 207.344,299.044 207.247 C 299.044 207.149,299.614 206.957,300.312 206.820 C 301.010 206.682,301.629 206.492,301.687 206.397 C 301.746 206.302,302.371 206.102,303.076 205.952 C 303.780 205.803,304.357 205.606,304.357 205.516 C 304.357 205.425,304.740 205.286,305.207 205.207 C 305.675 205.128,306.057 204.987,306.057 204.893 C 306.057 204.799,306.320 204.658,306.642 204.580 C 307.270 204.428,309.564 203.564,310.659 203.067 C 311.027 202.900,311.434 202.763,311.562 202.763 C 311.691 202.763,311.796 202.680,311.796 202.578 C 311.796 202.476,312.226 202.273,312.752 202.125 C 313.278 201.978,313.709 201.794,313.709 201.715 C 313.709 201.637,314.067 201.445,314.506 201.288 C 314.944 201.131,315.351 200.943,315.409 200.870 C 315.568 200.673,317.898 199.575,318.159 199.575 C 318.283 199.575,318.385 199.499,318.385 199.407 C 318.385 199.314,318.935 198.963,319.607 198.626 C 320.279 198.289,320.878 197.958,320.937 197.891 C 321.036 197.779,322.009 197.243,324.217 196.083 C 324.678 195.841,325.156 195.570,325.280 195.481 C 326.060 194.917,327.145 194.261,327.298 194.261 C 327.397 194.261,327.533 194.118,327.601 193.943 C 327.668 193.767,327.818 193.624,327.933 193.624 C 328.126 193.624,329.251 192.937,330.112 192.295 C 330.307 192.149,330.679 191.886,330.938 191.711 C 331.197 191.536,331.871 191.033,332.436 190.595 C 333.000 190.157,333.564 189.798,333.688 189.798 C 333.812 189.798,333.967 189.658,334.033 189.487 C 334.098 189.316,334.325 189.122,334.535 189.055 C 334.746 188.988,335.287 188.605,335.738 188.204 C 336.188 187.803,336.724 187.328,336.929 187.149 C 337.133 186.969,337.392 186.823,337.503 186.823 C 337.614 186.823,337.781 186.701,337.875 186.553 C 337.968 186.405,338.341 186.047,338.703 185.756 C 339.065 185.466,339.777 184.894,340.286 184.485 C 340.794 184.075,341.577 183.387,342.025 182.954 C 342.473 182.522,343.083 181.976,343.382 181.741 C 345.813 179.828,355.416 170.268,358.345 166.844 C 358.595 166.552,359.103 165.980,359.474 165.573 C 359.845 165.167,360.552 164.306,361.045 163.661 C 361.539 163.015,362.232 162.200,362.587 161.849 C 362.941 161.498,363.231 161.129,363.231 161.029 C 363.231 160.928,363.418 160.642,363.647 160.391 C 364.210 159.777,365.366 158.340,365.887 157.608 C 366.121 157.280,366.526 156.761,366.787 156.455 C 367.049 156.149,367.360 155.782,367.479 155.640 C 367.598 155.499,367.806 155.140,367.942 154.843 C 368.077 154.547,368.270 154.304,368.371 154.304 C 368.472 154.304,368.646 154.065,368.757 153.773 C 368.868 153.480,369.057 153.241,369.176 153.241 C 369.296 153.241,369.394 153.146,369.394 153.030 C 369.394 152.914,369.925 152.077,370.573 151.171 C 371.221 150.264,371.806 149.354,371.873 149.150 C 371.940 148.945,372.081 148.778,372.187 148.778 C 372.292 148.778,372.495 148.515,372.638 148.193 C 372.780 147.872,372.993 147.493,373.111 147.351 C 373.229 147.209,373.427 146.969,373.551 146.819 C 373.674 146.669,373.913 146.235,374.081 145.855 C 374.249 145.476,374.457 145.165,374.544 145.165 C 374.631 145.165,374.845 144.854,375.019 144.474 C 375.352 143.750,375.793 143.007,375.997 142.827 C 376.063 142.768,376.428 142.173,376.807 141.503 C 377.186 140.833,377.579 140.234,377.680 140.172 C 377.781 140.110,377.926 139.773,378.003 139.424 C 378.079 139.074,378.207 138.789,378.286 138.789 C 378.365 138.789,378.565 138.478,378.730 138.098 C 378.896 137.718,379.086 137.359,379.154 137.301 C 379.222 137.242,379.557 136.621,379.899 135.919 C 380.241 135.218,380.580 134.596,380.653 134.538 C 380.726 134.479,381.243 133.475,381.802 132.306 C 383.623 128.496,383.739 128.269,383.900 128.197 C 383.988 128.158,384.063 128.015,384.066 127.878 C 384.070 127.742,384.308 127.152,384.596 126.567 C 384.883 125.983,385.119 125.385,385.120 125.239 C 385.121 125.093,385.207 124.973,385.311 124.973 C 385.415 124.973,385.563 124.639,385.640 124.230 C 385.716 123.820,385.860 123.486,385.959 123.486 C 386.119 123.486,386.353 122.877,386.523 122.019 C 386.555 121.856,386.668 121.664,386.774 121.594 C 386.879 121.524,387.098 121.012,387.259 120.457 C 387.421 119.902,387.617 119.447,387.695 119.447 C 387.774 119.447,387.901 119.113,387.977 118.704 C 388.054 118.294,388.214 117.960,388.332 117.960 C 388.451 117.960,388.493 117.871,388.426 117.762 C 388.358 117.653,388.401 117.504,388.519 117.430 C 388.638 117.357,388.739 117.135,388.743 116.938 C 388.747 116.740,388.935 116.196,389.160 115.728 C 389.386 115.260,389.578 114.734,389.586 114.559 C 389.593 114.384,389.785 113.858,390.011 113.390 C 390.236 112.922,390.425 112.378,390.428 112.180 C 390.432 111.983,390.525 111.766,390.634 111.699 C 390.743 111.631,390.949 111.052,391.093 110.411 C 391.236 109.770,391.424 109.245,391.509 109.245 C 391.595 109.245,391.788 108.624,391.939 107.864 C 392.090 107.104,392.286 106.482,392.375 106.482 C 392.463 106.482,392.600 106.052,392.678 105.526 C 392.757 105.000,392.898 104.570,392.991 104.570 C 393.084 104.570,393.273 103.900,393.411 103.082 C 393.549 102.264,393.736 101.594,393.825 101.594 C 393.915 101.594,394.111 100.877,394.261 100.000 C 394.411 99.123,394.604 98.406,394.689 98.406 C 394.774 98.406,394.910 97.909,394.991 97.302 C 395.071 96.695,395.202 96.098,395.280 95.974 C 395.359 95.850,395.431 95.701,395.439 95.643 C 395.614 94.426,396.068 92.296,396.188 92.136 C 396.276 92.019,396.411 91.445,396.489 90.861 C 396.567 90.276,396.687 89.655,396.756 89.479 C 396.936 89.022,396.918 89.121,397.207 87.035 C 397.353 85.983,397.563 84.903,397.673 84.635 C 397.784 84.367,397.986 82.980,398.123 81.553 C 398.260 80.126,398.440 78.911,398.523 78.852 C 398.647 78.764,399.166 73.734,399.158 72.689 C 399.150 71.522,398.680 68.319,398.508 68.261 C 398.394 68.222,398.298 67.935,398.295 67.623 C 398.288 66.587,396.703 63.889,395.324 62.563 C 394.220 61.501,394.061 61.369,393.583 61.119 C 392.796 60.707,392.038 60.264,391.923 60.149 C 391.666 59.892,389.578 59.235,388.363 59.029 C 387.633 58.905,387.035 58.732,387.035 58.646 C 387.035 58.490,384.986 58.325,381.084 58.169 C 379.973 58.124,377.303 58.165,375.149 58.259 " stroke="none" fill="#fbdd11" fill-rule="evenodd"></path></g></svg>